<svg xmlns="http://www.w3.org/2000/svg" viewBox="0 0 195 316.86"><g id="Layer_2" data-name="Layer 2"><g id="Layer_1-2" data-name="Layer 1"><g id="Shape_294" data-name="Shape 294"><path d="M71.43,174.31a32.44,32.44,0,0,1-.12,4.83H30.16a23.34,23.34,0,0,1-.14-4.94.59.59,0,0,1,.14-.41.64.64,0,0,1,.46-.12H70.7a.56.56,0,0,1,.73.63Z" fill="#c1272d"/><path d="M73.64,150.8a.61.61,0,0,1,.14.44,33,33,0,0,1-.12,5.44h-43a.72.72,0,0,1-.55-.16A.75.75,0,0,1,30,156v-4.72a.7.7,0,0,1,.14-.51.71.71,0,0,1,.48-.12H73.17A.68.68,0,0,1,73.64,150.8Z" fill="#c1272d"/><path d="M48.29,140.33a.67.67,0,0,1,.17-.55.64.64,0,0,1,.44-.1h22a.56.56,0,0,1,.44.13.62.62,0,0,1,.1.38v4.34a.63.63,0,0,1-.15.5.6.6,0,0,1-.42.1q-11.28.06-22.57,0Z" fill="#c1272d"/><path d="M29.54,186.44a.76.76,0,0,1,.21-.66.73.73,0,0,1,.46-.1H70.5a.57.57,0,0,1,.39.1.57.57,0,0,1,.11.41v4.32a.56.56,0,0,1-.1.4.58.58,0,0,1-.44.13H30.29a.79.79,0,0,1-.66-.21.77.77,0,0,1-.1-.48Z" fill="#c1272d"/><path d="M71.47,163.32v3.82a.57.57,0,0,1-.11.4.69.69,0,0,1-.51.14H30.74a.83.83,0,0,1-.63-.18.62.62,0,0,1-.11-.44v-3.73a.66.66,0,0,1,.17-.54.84.84,0,0,1,.5-.11H70.73a.83.83,0,0,1,.61.16A.68.68,0,0,1,71.47,163.32Z" fill="#c1272d"/><path d="M5,102.15c0-2,.12-4.16,1.61-5.42,1.22-1,3-1.08,4.57-1.06l55.49.5c10.17.09,21.66.76,28.35,8.42,5.63-6.66,15.35-7.71,24.07-8.12q30.19-1.43,60.46-.34c1.5.05,3.15.17,4.22,1.23s1.19,2.89,1.19,4.48v126a7.5,7.5,0,0,1-.88,4.33c-1.37,2-4.19,2.16-6.6,2.13l-38.67-.35c-10.56-.1-21.43-.14-31.25,3.72-3.7,1.46-7.28,3.47-11.24,3.77-4.8.36-9.36-1.84-13.89-3.45-22.66-8-47.73-1.63-71.64-4.1a7.13,7.13,0,0,1-4.31-1.48C5.1,231,5,228.83,5,226.86q0-62.36,0-124.71m9.34,123.38c12.37,1.05,24.81,0,37.23-.16s25.11.8,36.56,5.61q0-58.57,0-117.14a7.87,7.87,0,0,0-.56-3.58,6.86,6.86,0,0,0-3.5-2.86c-6.51-3-13.92-3-21.07-3l-48.69.08q0,60.53.05,121.05m122.2-73.81a15.79,15.79,0,0,0-9.54-6.65,13.34,13.34,0,0,0-11.21,2.57c-4.62,3.82-5.78,10.85-3.69,16.47,2,5.46,6.5,9.59,11,13.26s9.32,7.2,12.46,12.1a1.11,1.11,0,0,0,1.46.23,3.6,3.6,0,0,0,1.09-1.17c3.31-4.74,8.11-8.18,12.56-11.88s8.76-8,10.48-13.51c1.5-4.8.7-10.44-2.68-14.18a13.35,13.35,0,0,0-11.6-4.08A14.85,14.85,0,0,0,136.58,151.72Z" fill="#c1272d"/></g><text transform="translate(7.08 34.32)" font-size="40" font-family="Arial-Black, Arial Black" font-weight="800"><tspan letter-spacing="-0.02em">R</tspan><tspan x="30.12" y="0">eading</tspan><tspan x="69.54" y="48">is</tspan></text><text transform="translate(6.94 294.85)" font-size="45" font-family="SignPainter-HouseScript, SignPainter"><tspan letter-spacing="-0.05em">F</tspan><tspan x="14.08" y="0">undame</tspan><tspan x="125.73" y="0" letter-spacing="0em">n</tspan><tspan x="142.83" y="0">tal</tspan></text></g></g></svg>